<?xml version="1.0" encoding="UTF-8"?><svg xmlns="http://www.w3.org/2000/svg" xmlns:xlink="http://www.w3.org/1999/xlink" fill-opacity="1" color-rendering="auto" color-interpolation="auto" text-rendering="auto" stroke="black" stroke-linecap="square" width="261" stroke-miterlimit="10" shape-rendering="auto" stroke-opacity="1" fill="black" stroke-dasharray="none" font-weight="normal" stroke-width="1" height="411" font-family="'Dialog'" font-style="normal" stroke-linejoin="miter" font-size="12px" stroke-dashoffset="0" image-rendering="auto">
  <!--Generated by ySVG 2.5-->
  <defs id="genericDefs"/>
  <g>
    <defs id="defs1">
      <clipPath clipPathUnits="userSpaceOnUse" id="clipPath1">
        <path d="M0 0 L261 0 L261 411 L0 411 L0 0 Z"/>
      </clipPath>
      <clipPath clipPathUnits="userSpaceOnUse" id="clipPath2">
        <path d="M549 229 L810 229 L810 640 L549 640 L549 229 Z"/>
      </clipPath>
      <clipPath clipPathUnits="userSpaceOnUse" id="clipPath3">
        <path d="M-188.9295 97.7684 L-188.9295 -163.2316 L222.0705 -163.2316 L222.0705 97.7684 L-188.9295 97.7684 Z"/>
      </clipPath>
      <clipPath clipPathUnits="userSpaceOnUse" id="clipPath4">
        <path d="M222.913 -133.7794 L222.913 127.2206 L-188.087 127.2206 L-188.087 -133.7794 L222.913 -133.7794 Z"/>
      </clipPath>
    </defs>
    <g fill="white" text-rendering="geometricPrecision" shape-rendering="geometricPrecision" transform="translate(-549,-229)" stroke="white">
      <rect x="549" width="261" height="411" y="229" clip-path="url(#clipPath2)" stroke="none"/>
    </g>
    <g fill="white" text-rendering="geometricPrecision" shape-rendering="geometricPrecision" transform="matrix(1,0,0,1,-549,-229)" stroke="white">
      <rect x="704.7739" width="60" height="20" y="334.9213" clip-path="url(#clipPath2)" stroke="none"/>
    </g>
    <g text-rendering="geometricPrecision" stroke-miterlimit="1.45" shape-rendering="geometricPrecision" transform="matrix(1,0,0,1,-549,-229)" stroke-linecap="butt">
      <rect fill="none" x="704.7739" width="60" height="20" y="334.9213" clip-path="url(#clipPath2)"/>
      <text x="714.7849" font-size="20px" y="351.5177" clip-path="url(#clipPath2)" font-family="'Ubuntu Mono'" stroke="none" xml:space="preserve">PUSH</text>
    </g>
    <g fill="white" text-rendering="geometricPrecision" shape-rendering="geometricPrecision" transform="matrix(1,0,0,1,-549,-229)" stroke="white">
      <rect x="704.7739" width="60" height="20" y="254.9213" clip-path="url(#clipPath2)" stroke="none"/>
    </g>
    <g text-rendering="geometricPrecision" stroke-miterlimit="1.45" shape-rendering="geometricPrecision" transform="matrix(1,0,0,1,-549,-229)" stroke-linecap="butt">
      <rect fill="none" x="704.7739" width="60" height="20" y="254.9213" clip-path="url(#clipPath2)"/>
      <text x="719.7821" font-size="20px" y="271.5177" clip-path="url(#clipPath2)" font-family="'Ubuntu Mono'" stroke="none" xml:space="preserve">SUB</text>
    </g>
    <g fill="white" text-rendering="geometricPrecision" shape-rendering="geometricPrecision" transform="matrix(1,0,0,1,-549,-229)" stroke="white">
      <rect x="704.7739" width="60" height="60" y="274.9213" clip-path="url(#clipPath2)" stroke="none"/>
    </g>
    <g text-rendering="geometricPrecision" stroke-miterlimit="1.45" stroke-width="2" shape-rendering="geometricPrecision" transform="matrix(1,0,0,1,-549,-229)" stroke-linecap="butt">
      <rect fill="none" x="704.7739" width="60" height="60" y="274.9213" clip-path="url(#clipPath2)"/>
      <text x="714.7849" font-size="20px" y="311.5177" clip-path="url(#clipPath2)" font-family="'Ubuntu Mono'" stroke="none" stroke-width="1" xml:space="preserve">recv</text>
    </g>
    <g fill="white" text-rendering="geometricPrecision" shape-rendering="geometricPrecision" transform="matrix(1,0,0,1,-549,-229)" stroke="white">
      <rect x="704.7739" width="60" height="20" y="464.9213" clip-path="url(#clipPath2)" stroke="none"/>
    </g>
    <g text-rendering="geometricPrecision" stroke-miterlimit="1.45" shape-rendering="geometricPrecision" transform="matrix(1,0,0,1,-549,-229)" stroke-linecap="butt">
      <rect fill="none" x="704.7739" width="60" height="20" y="464.9213" clip-path="url(#clipPath2)"/>
      <text x="714.7849" font-size="20px" y="481.5177" clip-path="url(#clipPath2)" font-family="'Ubuntu Mono'" stroke="none" xml:space="preserve">PUSH</text>
    </g>
    <g fill="white" text-rendering="geometricPrecision" shape-rendering="geometricPrecision" transform="matrix(1,0,0,1,-549,-229)" stroke="white">
      <rect x="704.7739" width="60" height="20" y="384.9213" clip-path="url(#clipPath2)" stroke="none"/>
    </g>
    <g text-rendering="geometricPrecision" stroke-miterlimit="1.45" shape-rendering="geometricPrecision" transform="matrix(1,0,0,1,-549,-229)" stroke-linecap="butt">
      <rect fill="none" x="704.7739" width="60" height="20" y="384.9213" clip-path="url(#clipPath2)"/>
      <text x="714.7849" font-size="20px" y="401.5177" clip-path="url(#clipPath2)" font-family="'Ubuntu Mono'" stroke="none" xml:space="preserve">PULL</text>
    </g>
    <g fill="white" text-rendering="geometricPrecision" shape-rendering="geometricPrecision" transform="matrix(1,0,0,1,-549,-229)" stroke="white">
      <rect x="704.7739" width="60" height="20" y="514.9213" clip-path="url(#clipPath2)" stroke="none"/>
    </g>
    <g text-rendering="geometricPrecision" stroke-miterlimit="1.45" shape-rendering="geometricPrecision" transform="matrix(1,0,0,1,-549,-229)" stroke-linecap="butt">
      <rect fill="none" x="704.7739" width="60" height="20" y="514.9213" clip-path="url(#clipPath2)"/>
      <text x="714.7849" font-size="20px" y="531.5176" clip-path="url(#clipPath2)" font-family="'Ubuntu Mono'" stroke="none" xml:space="preserve">PULL</text>
    </g>
    <g fill="white" text-rendering="geometricPrecision" shape-rendering="geometricPrecision" transform="matrix(1,0,0,1,-549,-229)" stroke="white">
      <rect x="624.7739" width="20" height="60" y="404.9213" clip-path="url(#clipPath2)" stroke="none"/>
    </g>
    <g text-rendering="geometricPrecision" stroke-miterlimit="1.45" shape-rendering="geometricPrecision" transform="matrix(1,0,0,1,-549,-229)" stroke-linecap="butt">
      <rect fill="none" x="624.7739" width="20" height="60" y="404.9213" clip-path="url(#clipPath2)"/>
    </g>
    <g font-size="20px" stroke-linecap="butt" transform="matrix(0,1,-1,0,97.7684,188.9295)" text-rendering="geometricPrecision" font-family="'Ubuntu Mono'" shape-rendering="geometricPrecision" stroke-miterlimit="1.45">
      <text x="2" xml:space="preserve" y="18.5909" clip-path="url(#clipPath3)" stroke="none">REP</text>
    </g>
    <g fill="white" text-rendering="geometricPrecision" shape-rendering="geometricPrecision" transform="matrix(1,0,0,1,-549,-229)" stroke="white">
      <rect x="704.7739" width="60" height="20" y="594.9213" clip-path="url(#clipPath2)" stroke="none"/>
    </g>
    <g text-rendering="geometricPrecision" stroke-miterlimit="1.45" shape-rendering="geometricPrecision" transform="matrix(1,0,0,1,-549,-229)" stroke-linecap="butt">
      <rect fill="none" x="704.7739" width="60" height="20" y="594.9213" clip-path="url(#clipPath2)"/>
      <text x="719.7821" font-size="20px" y="611.5176" clip-path="url(#clipPath2)" font-family="'Ubuntu Mono'" stroke="none" xml:space="preserve">PUB</text>
    </g>
    <g fill="white" text-rendering="geometricPrecision" shape-rendering="geometricPrecision" transform="matrix(1,0,0,1,-549,-229)" stroke="white">
      <rect x="564.7739" width="60" height="60" y="404.9213" clip-path="url(#clipPath2)" stroke="none"/>
    </g>
    <g text-rendering="geometricPrecision" stroke-miterlimit="1.45" stroke-width="2" shape-rendering="geometricPrecision" transform="matrix(1,0,0,1,-549,-229)" stroke-linecap="butt">
      <rect fill="none" x="564.7739" width="60" height="60" y="404.9213" clip-path="url(#clipPath2)"/>
      <text x="574.7849" font-size="20px" y="441.5177" clip-path="url(#clipPath2)" font-family="'Ubuntu Mono'" stroke="none" stroke-width="1" xml:space="preserve">prst</text>
    </g>
    <g fill="white" text-rendering="geometricPrecision" shape-rendering="geometricPrecision" transform="matrix(1,0,0,1,-549,-229)" stroke="white">
      <rect x="684.7739" width="20" height="60" y="404.9213" clip-path="url(#clipPath2)" stroke="none"/>
    </g>
    <g text-rendering="geometricPrecision" stroke-miterlimit="1.45" shape-rendering="geometricPrecision" transform="matrix(1,0,0,1,-549,-229)" stroke-linecap="butt">
      <rect fill="none" x="684.7739" width="20" height="60" y="404.9213" clip-path="url(#clipPath2)"/>
    </g>
    <g font-size="20px" stroke-linecap="butt" transform="matrix(-0,-1,1,-0,133.7794,222.913)" text-rendering="geometricPrecision" font-family="'Ubuntu Mono'" shape-rendering="geometricPrecision" stroke-miterlimit="1.45">
      <text x="2" xml:space="preserve" y="18.5909" clip-path="url(#clipPath4)" stroke="none">REQ</text>
    </g>
    <g fill="white" text-rendering="geometricPrecision" shape-rendering="geometricPrecision" transform="matrix(1,0,0,1,-549,-229)" stroke="white">
      <rect x="704.7739" width="60" height="60" y="404.9213" clip-path="url(#clipPath2)" stroke="none"/>
    </g>
    <g text-rendering="geometricPrecision" stroke-miterlimit="1.45" stroke-width="2" shape-rendering="geometricPrecision" transform="matrix(1,0,0,1,-549,-229)" stroke-linecap="butt">
      <rect fill="none" x="704.7739" width="60" height="60" y="404.9213" clip-path="url(#clipPath2)"/>
      <text x="714.7849" font-size="20px" y="441.5177" clip-path="url(#clipPath2)" font-family="'Ubuntu Mono'" stroke="none" stroke-width="1" xml:space="preserve">chck</text>
    </g>
    <g fill="white" text-rendering="geometricPrecision" shape-rendering="geometricPrecision" transform="matrix(1,0,0,1,-549,-229)" stroke="white">
      <rect x="704.7739" width="60" height="60" y="534.9213" clip-path="url(#clipPath2)" stroke="none"/>
    </g>
    <g text-rendering="geometricPrecision" stroke-miterlimit="1.45" stroke-width="2" shape-rendering="geometricPrecision" transform="matrix(1,0,0,1,-549,-229)" stroke-linecap="butt">
      <rect fill="none" x="704.7739" width="60" height="60" y="534.9213" clip-path="url(#clipPath2)"/>
      <text x="714.7849" font-size="20px" y="571.5176" clip-path="url(#clipPath2)" font-family="'Ubuntu Mono'" stroke="none" stroke-width="1" xml:space="preserve">send</text>
      <path fill="none" d="M734.7739 359.4323 L734.7739 384.9213" clip-path="url(#clipPath2)"/>
      <path d="M734.7739 350.4323 C737.2592 350.4323 739.2739 352.447 739.2739 354.9323 C739.2739 357.4176 737.2592 359.4323 734.7739 359.4323 C732.2886 359.4323 730.2739 357.4176 730.2739 354.9323 C730.2739 352.447 732.2886 350.4323 734.7739 350.4323 Z" clip-path="url(#clipPath2)" stroke="none"/>
      <path fill="none" d="M734.7739 484.9213 L734.7739 510.392" clip-path="url(#clipPath2)"/>
      <path d="M734.7739 519.392 C732.2886 519.392 730.2739 517.3773 730.2739 514.892 C730.2739 512.4067 732.2886 510.392 734.7739 510.392 C737.2592 510.392 739.2739 512.4067 739.2739 514.892 C739.2739 517.3773 737.2592 519.392 734.7739 519.392 Z" clip-path="url(#clipPath2)" stroke="none"/>
      <path fill="none" stroke-dasharray="12,4" d="M734.7739 614.9213 L734.7739 624.9213 L794.7739 624.9213 L794.7739 244.9213 L734.7739 244.9213 L734.7739 250.4213" clip-path="url(#clipPath2)"/>
      <path stroke-dasharray="12,4" d="M734.7739 259.4213 C732.2886 259.4213 730.2739 257.4066 730.2739 254.9213 C730.2739 252.436 732.2886 250.4213 734.7739 250.4213 C737.2592 250.4213 739.2739 252.436 739.2739 254.9213 C739.2739 257.4066 737.2592 259.4213 734.7739 259.4213 Z" clip-path="url(#clipPath2)" stroke="none"/>
      <path fill="none" d="M649.2739 434.9213 L684.7739 434.9213" clip-path="url(#clipPath2)"/>
      <path d="M640.2739 434.9213 C640.2739 432.436 642.2886 430.4213 644.7739 430.4213 C647.2592 430.4213 649.2739 432.436 649.2739 434.9213 C649.2739 437.4066 647.2592 439.4213 644.7739 439.4213 C642.2886 439.4213 640.2739 437.4066 640.2739 434.9213 Z" clip-path="url(#clipPath2)" stroke="none"/>
    </g>
  </g>
</svg>
